<?xml version="1.0" encoding="utf-8"?><!-- Uploaded to: SVG Repo, www.svgrepo.com, Generator: SVG Repo Mixer Tools -->
<svg version="1.1" id="Uploaded to svgrepo.com" xmlns="http://www.w3.org/2000/svg" xmlns:xlink="http://www.w3.org/1999/xlink" 
	 width="800px" height="800px" viewBox="0 0 32 32" xml:space="preserve">
<style type="text/css">
	.sharpcorners_een{fill:#111918;}
	.st0{fill:#111918;}
</style>
<path class="sharpcorners_een" d="M20,22l10,0v2H18V9h2V22z M21,4v8h10V4H21z M21,21h10v-8H21V21z M5,24c-1.657,0-3,1.343-3,3
	s1.343,3,3,3s3-1.343,3-3S6.657,24,5,24z M15,24c-1.657,0-3,1.343-3,3s1.343,3,3,3s3-1.343,3-3S16.657,24,15,24z M11,27H9
	c0-2.206-1.794-4-4-4c-0.732,0-1.409,0.212-2,0.556V9h10l4,7v7.557C16.409,23.212,15.732,23,15,23C12.794,23,11,24.794,11,27z
	 M14.697,16l-2.857-5H5v5H14.697z"/>
</svg>